<?xml version="1.0" encoding="UTF-8"?>
<svg width="24" height="24" viewBox="0 0 24 24" fill="none" xmlns="http://www.w3.org/2000/svg">
    <path d="M12 15C13.6569 15 15 13.6569 15 12C15 10.3431 13.6569 9 12 9C10.3431 9 9 10.3431 9 12C9 13.6569 10.3431 15 12 15Z" stroke="currentColor" stroke-width="2" stroke-linecap="round" stroke-linejoin="round"/>
    <path d="M19.4 15C19.2669 15.3044 19.1343 15.6084 19.001 15.912L21.5 18.4L19.4 20.5L16.912 18.999C16.6084 19.132 16.3044 19.265 16 19.4V22H13V19.4C12.6956 19.265 12.3916 19.132 12.088 18.999L9.6 20.5L7.5 18.4L9.001 15.912C8.86799 15.6084 8.73439 15.3044 8.6 15V12H5V9H8.6C8.73439 8.69563 8.86799 8.39158 9.001 8.088L7.5 5.6L9.6 3.5L12.088 5.001C12.3916 4.86799 12.6956 4.73439 13 4.6V2H16V4.6C16.3044 4.73439 16.6084 4.86799 16.912 5.001L19.4 3.5L21.5 5.6L18.999 8.088C19.132 8.39158 19.265 8.69563 19.4 9H22V12H19.4V15Z" stroke="currentColor" stroke-width="2" stroke-linecap="round" stroke-linejoin="round"/>
</svg>