<?xml version="1.0" encoding="UTF-8"?>
<svg width="120" height="80" viewBox="0 0 120 80" fill="none" xmlns="http://www.w3.org/2000/svg">
    <!-- Kenya Flag -->
    <rect width="120" height="80" fill="black"/>
    <rect width="120" height="53.333" fill="#006600"/>
    <rect y="53.333" width="120" height="26.667" fill="#CC0000"/>
    <path d="M0,0 L120,80 M120,0 L0,80" stroke="white" stroke-width="10"/>
    <path d="M0,0 L120,80 M120,0 L0,80" stroke="#CC0000" stroke-width="6"/>
    <circle cx="60" cy="40" r="15" fill="white"/>
    <circle cx="60" cy="40" r="12" fill="#CC0000"/>
    <path d="M60,28 L65,35 L72,33 L70,40 L77,43 L70,47 L72,54 L65,52 L60,59 L55,52 L48,54 L50,47 L43,44 L50,40 L48,33 L55,35 Z" fill="white"/>
</svg>