<?xml version="1.0" encoding="UTF-8"?>
<svg width="120" height="80" viewBox="0 0 120 80" fill="none" xmlns="http://www.w3.org/2000/svg">
    <!-- Uganda Flag -->
    <rect width="120" height="16" fill="black"/>
    <rect y="16" width="120" height="16" fill="#FFCC00"/>
    <rect y="32" width="120" height="16" fill="#CC0000"/>
    <rect y="48" width="120" height="16" fill="black"/>
    <rect y="64" width="120" height="16" fill="#FFCC00"/>
    <circle cx="60" cy="40" r="20" fill="white"/>
    <circle cx="60" cy="40" r="18" fill="#CC0000"/>
    <circle cx="60" cy="40" r="14" fill="white"/>
    <circle cx="60" cy="40" r="12" fill="#CC0000"/>
    <path d="M60,28 L65,35 L72,33 L70,40 L77,43 L70,47 L72,54 L65,52 L60,59 L55,52 L48,54 L50,47 L43,44 L50,40 L48,33 L55,35 Z" fill="white"/>
</svg>